<svg width="1471" height="838" viewBox="0 0 1471 838" fill="none" xmlns="http://www.w3.org/2000/svg">
<mask id="mask0_91_2" style="mask-type:alpha" maskUnits="userSpaceOnUse" x="0" y="0" width="1471" height="838">
<rect width="1471" height="838" fill="#D9D9D9"/>
</mask>
<g mask="url(#mask0_91_2)">
<path d="M499.193 811.606L99.9733 143.076L460.387 -540.241L1232.9 -533.462L1632.12 135.069L1267.41 811.197L499.193 811.606Z" fill="#001F55"/>
</g>
<path d="M288.6 257V252.2H302.2V257H288.6ZM288.6 234.2V229.4H302.2V234.2H288.6ZM292.2 257V229.4H298.6V257H292.2ZM308.189 257V229.4H313.949V257H308.189ZM310.429 229.4H316.389L329.949 257H323.989L310.429 229.4ZM325.989 257V229.4H331.749V257H325.989ZM338.541 257V229.4H344.941V257H338.541ZM341.501 247.12V241.52H355.741V247.12H341.501ZM341.501 235V229.4H357.341V235H341.501ZM360.73 243.2C360.73 240.96 361.063 238.96 361.73 237.2C362.423 235.44 363.37 233.947 364.57 232.72C365.77 231.493 367.156 230.56 368.73 229.92C370.33 229.253 372.023 228.92 373.81 228.92C375.623 228.92 377.316 229.253 378.89 229.92C380.463 230.56 381.85 231.493 383.05 232.72C384.25 233.947 385.183 235.44 385.85 237.2C386.543 238.96 386.89 240.96 386.89 243.2C386.89 245.44 386.543 247.44 385.85 249.2C385.183 250.96 384.25 252.453 383.05 253.68C381.85 254.907 380.463 255.853 378.89 256.52C377.316 257.16 375.636 257.48 373.85 257.48C372.036 257.48 370.33 257.16 368.73 256.52C367.156 255.853 365.77 254.907 364.57 253.68C363.37 252.453 362.423 250.96 361.73 249.2C361.063 247.44 360.73 245.44 360.73 243.2ZM367.25 243.2C367.25 244.64 367.41 245.893 367.73 246.96C368.076 248.027 368.543 248.92 369.13 249.64C369.716 250.36 370.41 250.893 371.21 251.24C372.01 251.587 372.876 251.76 373.81 251.76C374.743 251.76 375.61 251.587 376.41 251.24C377.21 250.893 377.903 250.36 378.49 249.64C379.076 248.92 379.53 248.027 379.85 246.96C380.196 245.893 380.37 244.64 380.37 243.2C380.37 241.76 380.196 240.507 379.85 239.44C379.53 238.373 379.076 237.48 378.49 236.76C377.903 236.04 377.21 235.507 376.41 235.16C375.61 234.813 374.743 234.64 373.81 234.64C372.876 234.64 372.01 234.813 371.21 235.16C370.41 235.507 369.716 236.04 369.13 236.76C368.543 237.48 368.076 238.373 367.73 239.44C367.41 240.507 367.25 241.76 367.25 243.2ZM392.095 257V229.4H398.495V257H392.095ZM395.055 247.4V242.2H401.975C403.282 242.2 404.335 241.907 405.135 241.32C405.935 240.733 406.335 239.827 406.335 238.6C406.335 237.373 405.935 236.467 405.135 235.88C404.335 235.293 403.282 235 401.975 235H395.055V229.4H402.575C404.522 229.4 406.269 229.773 407.815 230.52C409.362 231.24 410.589 232.293 411.495 233.68C412.402 235.04 412.855 236.68 412.855 238.6C412.855 240.44 412.402 242.013 411.495 243.32C410.589 244.627 409.362 245.64 407.815 246.36C406.269 247.053 404.522 247.4 402.575 247.4H395.055ZM400.535 245.4H406.895L413.655 257H406.575L400.535 245.4ZM418.463 257V229.4H424.583V257H418.463ZM421.343 229.4H427.223L432.463 243.6V251.36H430.023L421.343 229.4ZM431.823 251.36V243.6L437.063 229.4H442.943L434.263 251.36H431.823ZM439.703 257V229.4H445.823V257H439.703ZM449.203 257L459.243 229.4H462.603L462.923 235.64L455.843 257H449.203ZM455.963 251.56V246.48H469.003V251.56H455.963ZM461.563 235.64L461.723 229.4H465.403L475.443 257H468.643L461.563 235.64ZM459.643 227L463.203 221H470.043L464.483 227H459.643ZM474.461 235V229.4H495.901V235H474.461ZM481.981 257V229.4H488.381V257H481.981ZM499.498 257V252.2H513.098V257H499.498ZM499.498 234.2V229.4H513.098V234.2H499.498ZM503.098 257V229.4H509.498V257H503.098ZM517.488 243.2C517.488 240.96 517.848 238.96 518.568 237.2C519.314 235.44 520.314 233.947 521.567 232.72C522.848 231.493 524.301 230.56 525.928 229.92C527.581 229.253 529.328 228.92 531.168 228.92C532.901 228.92 534.488 229.16 535.928 229.64C537.394 230.093 538.821 230.787 540.208 231.72L536.728 236.84C535.901 236.28 535.008 235.827 534.048 235.48C533.088 235.107 532.061 234.92 530.968 234.92C529.688 234.92 528.514 235.227 527.447 235.84C526.408 236.453 525.568 237.373 524.928 238.6C524.314 239.827 524.008 241.36 524.008 243.2C524.008 245.04 524.314 246.573 524.928 247.8C525.568 249.027 526.421 249.947 527.488 250.56C528.554 251.173 529.728 251.48 531.008 251.48C532.101 251.48 533.114 251.28 534.048 250.88C535.008 250.48 535.901 249.947 536.728 249.28L540.408 254.24C539.048 255.307 537.634 256.12 536.168 256.68C534.701 257.213 533.061 257.48 531.248 257.48C529.408 257.48 527.648 257.16 525.967 256.52C524.314 255.853 522.848 254.907 521.567 253.68C520.314 252.453 519.314 250.96 518.568 249.2C517.848 247.44 517.488 245.44 517.488 243.2ZM541.82 257L551.86 229.4H555.22L555.54 235.64L548.46 257H541.82ZM548.58 251.56V246.48H561.62V251.56H548.58ZM554.18 235.64L554.34 229.4H558.02L568.06 257H561.26L554.18 235.64ZM302.6 304.6L307.6 302.6C308 303.8 308.653 304.64 309.56 305.12C310.493 305.627 311.707 305.88 313.2 305.88V311.88C310.293 311.88 307.973 311.28 306.24 310.08C304.507 308.907 303.293 307.08 302.6 304.6ZM287.8 291.2C287.8 288.213 288.387 285.667 289.56 283.56C290.76 281.427 292.347 279.787 294.32 278.64C296.293 277.493 298.48 276.92 300.88 276.92C303.28 276.92 305.467 277.493 307.44 278.64C309.413 279.787 310.987 281.427 312.16 283.56C313.36 285.667 313.96 288.213 313.96 291.2C313.96 294.16 313.36 296.707 312.16 298.84C310.987 300.973 309.413 302.613 307.44 303.76C305.467 304.907 303.28 305.48 300.88 305.48C298.48 305.48 296.293 304.907 294.32 303.76C292.347 302.613 290.76 300.973 289.56 298.84C288.387 296.707 287.8 294.16 287.8 291.2ZM294.32 291.2C294.32 293.12 294.6 294.72 295.16 296C295.747 297.253 296.533 298.2 297.52 298.84C298.507 299.453 299.627 299.76 300.88 299.76C302.133 299.76 303.253 299.453 304.24 298.84C305.227 298.2 306 297.253 306.56 296C307.147 294.72 307.44 293.12 307.44 291.2C307.44 289.28 307.147 287.693 306.56 286.44C306 285.16 305.227 284.213 304.24 283.6C303.253 282.96 302.133 282.64 300.88 282.64C299.627 282.64 298.507 282.96 297.52 283.6C296.533 284.213 295.747 285.16 295.16 286.44C294.6 287.693 294.32 289.28 294.32 291.2ZM318.766 294V277.4H325.166V293.2C325.166 294.72 325.392 295.96 325.846 296.92C326.299 297.88 326.912 298.6 327.686 299.08C328.459 299.533 329.339 299.76 330.326 299.76C331.312 299.76 332.192 299.533 332.966 299.08C333.739 298.6 334.352 297.88 334.806 296.92C335.259 295.96 335.486 294.72 335.486 293.2V277.4H341.726V294C341.726 296.453 341.219 298.533 340.206 300.24C339.192 301.947 337.819 303.253 336.086 304.16C334.352 305.04 332.406 305.48 330.246 305.48C328.112 305.48 326.166 305.04 324.406 304.16C322.672 303.253 321.299 301.947 320.286 300.24C319.272 298.533 318.766 296.453 318.766 294ZM344.32 305L354.36 277.4H357.72L358.04 283.64L350.96 305H344.32ZM351.08 299.56V294.48H364.12V299.56H351.08ZM356.68 283.64L356.84 277.4H360.52L370.56 305H363.76L356.68 283.64ZM373.97 305V277.4H380.37V305H373.97ZM376.93 305V299.4H392.77V305H376.93ZM396.764 305V300.2H410.364V305H396.764ZM396.764 282.2V277.4H410.364V282.2H396.764ZM400.364 305V277.4H406.764V305H400.364ZM416.353 305V277.4H422.753V305H416.353ZM419.313 295.12V289.52H433.553V295.12H419.313ZM419.313 283V277.4H435.153V283H419.313ZM439.342 305V300.2H452.942V305H439.342ZM439.342 282.2V277.4H452.942V282.2H439.342ZM442.942 305V277.4H449.342V305H442.942ZM457.331 291.2C457.331 288.96 457.691 286.96 458.411 285.2C459.158 283.44 460.158 281.947 461.411 280.72C462.691 279.493 464.145 278.56 465.771 277.92C467.425 277.253 469.171 276.92 471.011 276.92C472.745 276.92 474.331 277.16 475.771 277.64C477.238 278.093 478.665 278.787 480.051 279.72L476.571 284.84C475.745 284.28 474.851 283.827 473.891 283.48C472.931 283.107 471.905 282.92 470.811 282.92C469.531 282.92 468.358 283.227 467.291 283.84C466.251 284.453 465.411 285.373 464.771 286.6C464.158 287.827 463.851 289.36 463.851 291.2C463.851 293.04 464.158 294.573 464.771 295.8C465.411 297.027 466.265 297.947 467.331 298.56C468.398 299.173 469.571 299.48 470.851 299.48C471.945 299.48 472.958 299.28 473.891 298.88C474.851 298.48 475.745 297.947 476.571 297.28L480.251 302.24C478.891 303.307 477.478 304.12 476.011 304.68C474.545 305.213 472.905 305.48 471.091 305.48C469.251 305.48 467.491 305.16 465.811 304.52C464.158 303.853 462.691 302.907 461.411 301.68C460.158 300.453 459.158 298.96 458.411 297.2C457.691 295.44 457.331 293.44 457.331 291.2ZM481.664 305L491.704 277.4H495.064L495.384 283.64L488.304 305H481.664ZM488.424 299.56V294.48H501.464V299.56H488.424ZM494.024 283.64L494.184 277.4H497.864L507.904 305H501.104L494.024 283.64ZM509.323 291.2C509.323 288.96 509.683 286.96 510.403 285.2C511.15 283.44 512.15 281.947 513.403 280.72C514.683 279.493 516.137 278.56 517.763 277.92C519.417 277.253 521.163 276.92 523.003 276.92C524.737 276.92 526.323 277.16 527.763 277.64C529.23 278.093 530.657 278.787 532.043 279.72L528.563 284.84C527.737 284.28 526.843 283.827 525.883 283.48C524.923 283.107 523.897 282.92 522.803 282.92C521.523 282.92 520.35 283.227 519.283 283.84C518.243 284.453 517.403 285.373 516.763 286.6C516.15 287.827 515.843 289.36 515.843 291.2C515.843 293.04 516.15 294.573 516.763 295.8C517.403 297.027 518.257 297.947 519.323 298.56C520.39 299.173 521.563 299.48 522.843 299.48C523.937 299.48 524.95 299.28 525.883 298.88C526.843 298.48 527.737 297.947 528.563 297.28L532.243 302.24C530.883 303.307 529.47 304.12 528.003 304.68C526.537 305.213 524.897 305.48 523.083 305.48C521.243 305.48 519.483 305.16 517.803 304.52C516.15 303.853 514.683 302.907 513.403 301.68C512.15 300.453 511.15 298.96 510.403 297.2C509.683 295.44 509.323 293.44 509.323 291.2ZM519.403 314.12L519.963 311.72C521.19 311.72 521.99 311.56 522.363 311.24C522.737 310.947 522.923 310.587 522.923 310.16C522.923 309.787 522.777 309.48 522.483 309.24C522.217 309 521.75 308.853 521.083 308.8L520.283 308.72L521.163 304.4L524.123 304.64L523.683 307C524.857 307.187 525.683 307.56 526.163 308.12C526.67 308.68 526.923 309.333 526.923 310.08C526.923 310.827 526.723 311.507 526.323 312.12C525.923 312.733 525.27 313.213 524.363 313.56C523.483 313.933 522.31 314.12 520.843 314.12H519.403ZM533.656 305L543.696 277.4H547.056L547.376 283.64L540.296 305H533.656ZM540.416 299.56V294.48H553.456V299.56H540.416ZM546.016 283.64L546.176 277.4H549.856L559.896 305H553.096L546.016 283.64ZM540.496 275C540.576 273.213 540.963 271.84 541.656 270.88C542.376 269.893 543.31 269.4 544.456 269.4C544.99 269.4 545.47 269.493 545.896 269.68C546.323 269.84 546.71 270.04 547.056 270.28C547.403 270.52 547.736 270.733 548.056 270.92C548.376 271.08 548.683 271.16 548.976 271.16C549.27 271.16 549.523 271.053 549.736 270.84C549.95 270.6 550.096 270.187 550.176 269.6H552.976C552.896 271.387 552.51 272.773 551.816 273.76C551.123 274.72 550.19 275.2 549.016 275.2C548.483 275.2 548.003 275.12 547.576 274.96C547.15 274.773 546.763 274.56 546.416 274.32C546.07 274.08 545.736 273.88 545.416 273.72C545.096 273.533 544.79 273.44 544.496 273.44C544.23 273.44 543.976 273.547 543.736 273.76C543.523 273.973 543.376 274.387 543.296 275H540.496ZM561.316 291.2C561.316 288.96 561.649 286.96 562.316 285.2C563.009 283.44 563.956 281.947 565.156 280.72C566.356 279.493 567.742 278.56 569.316 277.92C570.916 277.253 572.609 276.92 574.396 276.92C576.209 276.92 577.902 277.253 579.476 277.92C581.049 278.56 582.436 279.493 583.636 280.72C584.836 281.947 585.769 283.44 586.436 285.2C587.129 286.96 587.476 288.96 587.476 291.2C587.476 293.44 587.129 295.44 586.436 297.2C585.769 298.96 584.836 300.453 583.636 301.68C582.436 302.907 581.049 303.853 579.476 304.52C577.902 305.16 576.222 305.48 574.436 305.48C572.622 305.48 570.916 305.16 569.316 304.52C567.742 303.853 566.356 302.907 565.156 301.68C563.956 300.453 563.009 298.96 562.316 297.2C561.649 295.44 561.316 293.44 561.316 291.2ZM567.836 291.2C567.836 292.64 567.996 293.893 568.316 294.96C568.662 296.027 569.129 296.92 569.716 297.64C570.302 298.36 570.996 298.893 571.796 299.24C572.596 299.587 573.462 299.76 574.396 299.76C575.329 299.76 576.196 299.587 576.996 299.24C577.796 298.893 578.489 298.36 579.076 297.64C579.662 296.92 580.116 296.027 580.436 294.96C580.782 293.893 580.956 292.64 580.956 291.2C580.956 289.76 580.782 288.507 580.436 287.44C580.116 286.373 579.662 285.48 579.076 284.76C578.489 284.04 577.796 283.507 576.996 283.16C576.196 282.813 575.329 282.64 574.396 282.64C573.462 282.64 572.596 282.813 571.796 283.16C570.996 283.507 570.302 284.04 569.716 284.76C569.129 285.48 568.662 286.373 568.316 287.44C567.996 288.507 567.836 289.76 567.836 291.2ZM602.681 305V277.4H609.081V305H602.681ZM605.641 297.4V291.8H612.161C613.708 291.8 614.948 291.44 615.881 290.72C616.841 289.973 617.321 288.867 617.321 287.4C617.321 285.907 616.841 284.8 615.881 284.08C614.948 283.36 613.708 283 612.161 283H605.641V277.4H612.761C614.841 277.4 616.721 277.8 618.401 278.6C620.081 279.4 621.401 280.547 622.361 282.04C623.348 283.507 623.841 285.293 623.841 287.4C623.841 289.48 623.348 291.267 622.361 292.76C621.401 294.253 620.081 295.4 618.401 296.2C616.721 297 614.841 297.4 612.761 297.4H605.641ZM628.853 305V277.4H635.253V305H628.853ZM631.813 295.4V290.2H638.733C640.04 290.2 641.093 289.907 641.893 289.32C642.693 288.733 643.093 287.827 643.093 286.6C643.093 285.373 642.693 284.467 641.893 283.88C641.093 283.293 640.04 283 638.733 283H631.813V277.4H639.333C641.28 277.4 643.026 277.773 644.573 278.52C646.12 279.24 647.346 280.293 648.253 281.68C649.16 283.04 649.613 284.68 649.613 286.6C649.613 288.44 649.16 290.013 648.253 291.32C647.346 292.627 646.12 293.64 644.573 294.36C643.026 295.053 641.28 295.4 639.333 295.4H631.813ZM637.293 293.4H643.653L650.413 305H643.333L637.293 293.4ZM653.62 291.2C653.62 288.96 653.954 286.96 654.62 285.2C655.314 283.44 656.26 281.947 657.46 280.72C658.66 279.493 660.047 278.56 661.62 277.92C663.22 277.253 664.914 276.92 666.7 276.92C668.514 276.92 670.207 277.253 671.78 277.92C673.354 278.56 674.74 279.493 675.94 280.72C677.14 281.947 678.074 283.44 678.74 285.2C679.434 286.96 679.78 288.96 679.78 291.2C679.78 293.44 679.434 295.44 678.74 297.2C678.074 298.96 677.14 300.453 675.94 301.68C674.74 302.907 673.354 303.853 671.78 304.52C670.207 305.16 668.527 305.48 666.74 305.48C664.927 305.48 663.22 305.16 661.62 304.52C660.047 303.853 658.66 302.907 657.46 301.68C656.26 300.453 655.314 298.96 654.62 297.2C653.954 295.44 653.62 293.44 653.62 291.2ZM660.14 291.2C660.14 292.64 660.3 293.893 660.62 294.96C660.967 296.027 661.434 296.92 662.02 297.64C662.607 298.36 663.3 298.893 664.1 299.24C664.9 299.587 665.767 299.76 666.7 299.76C667.634 299.76 668.5 299.587 669.3 299.24C670.1 298.893 670.794 298.36 671.38 297.64C671.967 296.92 672.42 296.027 672.74 294.96C673.087 293.893 673.26 292.64 673.26 291.2C673.26 289.76 673.087 288.507 672.74 287.44C672.42 286.373 671.967 285.48 671.38 284.76C670.794 284.04 670.1 283.507 669.3 283.16C668.5 282.813 667.634 282.64 666.7 282.64C665.767 282.64 664.9 282.813 664.1 283.16C663.3 283.507 662.607 284.04 662.02 284.76C661.434 285.48 660.967 286.373 660.62 287.44C660.3 288.507 660.14 289.76 660.14 291.2ZM684.986 305V277.4H691.386V305H684.986ZM687.946 295.12V289.52H702.186V295.12H687.946ZM687.946 283V277.4H703.786V283H687.946ZM707.975 305V300.2H721.575V305H707.975ZM707.975 282.2V277.4H721.575V282.2H707.975ZM711.575 305V277.4H717.975V305H711.575ZM725.564 302.04L728.604 296.72C729.777 297.68 731.137 298.467 732.684 299.08C734.231 299.667 735.737 299.96 737.204 299.96C738.084 299.96 738.817 299.853 739.404 299.64C740.017 299.427 740.484 299.147 740.804 298.8C741.124 298.453 741.284 298.067 741.284 297.64C741.284 297.267 741.137 296.88 740.844 296.48C740.577 296.08 740.071 295.667 739.324 295.24C738.604 294.813 737.537 294.373 736.124 293.92C733.937 293.2 732.164 292.387 730.804 291.48C729.471 290.547 728.497 289.533 727.884 288.44C727.271 287.347 726.964 286.2 726.964 285C726.964 283.533 727.351 282.187 728.124 280.96C728.924 279.733 730.097 278.76 731.644 278.04C733.191 277.293 735.097 276.92 737.364 276.92C739.177 276.92 740.977 277.213 742.764 277.8C744.577 278.36 746.097 279.067 747.324 279.92L744.484 285C743.391 284.227 742.191 283.6 740.884 283.12C739.577 282.613 738.231 282.36 736.844 282.36C735.724 282.36 734.871 282.573 734.284 283C733.697 283.427 733.404 283.92 733.404 284.48C733.404 284.88 733.551 285.267 733.844 285.64C734.164 286.013 734.684 286.387 735.404 286.76C736.151 287.133 737.151 287.533 738.404 287.96C740.671 288.707 742.497 289.547 743.884 290.48C745.271 291.387 746.284 292.4 746.924 293.52C747.564 294.613 747.884 295.84 747.884 297.2C747.884 298.667 747.471 300.027 746.644 301.28C745.817 302.533 744.564 303.547 742.884 304.32C741.204 305.093 739.084 305.48 736.524 305.48C735.271 305.48 734.017 305.333 732.764 305.04C731.511 304.773 730.284 304.387 729.084 303.88C727.884 303.373 726.711 302.76 725.564 302.04ZM751.072 302.04L754.112 296.72C755.285 297.68 756.645 298.467 758.192 299.08C759.739 299.667 761.245 299.96 762.712 299.96C763.592 299.96 764.325 299.853 764.912 299.64C765.525 299.427 765.992 299.147 766.312 298.8C766.632 298.453 766.792 298.067 766.792 297.64C766.792 297.267 766.645 296.88 766.352 296.48C766.085 296.08 765.579 295.667 764.832 295.24C764.112 294.813 763.045 294.373 761.632 293.92C759.445 293.2 757.672 292.387 756.312 291.48C754.979 290.547 754.005 289.533 753.392 288.44C752.779 287.347 752.472 286.2 752.472 285C752.472 283.533 752.859 282.187 753.632 280.96C754.432 279.733 755.605 278.76 757.152 278.04C758.699 277.293 760.605 276.92 762.872 276.92C764.685 276.92 766.485 277.213 768.272 277.8C770.085 278.36 771.605 279.067 772.832 279.92L769.992 285C768.899 284.227 767.699 283.6 766.392 283.12C765.085 282.613 763.739 282.36 762.352 282.36C761.232 282.36 760.379 282.573 759.792 283C759.205 283.427 758.912 283.92 758.912 284.48C758.912 284.88 759.059 285.267 759.352 285.64C759.672 286.013 760.192 286.387 760.912 286.76C761.659 287.133 762.659 287.533 763.912 287.96C766.179 288.707 768.005 289.547 769.392 290.48C770.779 291.387 771.792 292.4 772.432 293.52C773.072 294.613 773.392 295.84 773.392 297.2C773.392 298.667 772.979 300.027 772.152 301.28C771.325 302.533 770.072 303.547 768.392 304.32C766.712 305.093 764.592 305.48 762.032 305.48C760.779 305.48 759.525 305.333 758.272 305.04C757.019 304.773 755.792 304.387 754.592 303.88C753.392 303.373 752.219 302.76 751.072 302.04ZM777.78 305V300.2H791.38V305H777.78ZM777.78 282.2V277.4H791.38V282.2H777.78ZM781.38 305V277.4H787.78V305H781.38ZM795.769 291.2C795.769 288.96 796.102 286.96 796.769 285.2C797.462 283.44 798.409 281.947 799.609 280.72C800.809 279.493 802.195 278.56 803.769 277.92C805.369 277.253 807.062 276.92 808.849 276.92C810.662 276.92 812.355 277.253 813.929 277.92C815.502 278.56 816.889 279.493 818.089 280.72C819.289 281.947 820.222 283.44 820.889 285.2C821.582 286.96 821.929 288.96 821.929 291.2C821.929 293.44 821.582 295.44 820.889 297.2C820.222 298.96 819.289 300.453 818.089 301.68C816.889 302.907 815.502 303.853 813.929 304.52C812.355 305.16 810.675 305.48 808.889 305.48C807.075 305.48 805.369 305.16 803.769 304.52C802.195 303.853 800.809 302.907 799.609 301.68C798.409 300.453 797.462 298.96 796.769 297.2C796.102 295.44 795.769 293.44 795.769 291.2ZM802.289 291.2C802.289 292.64 802.449 293.893 802.769 294.96C803.115 296.027 803.582 296.92 804.169 297.64C804.755 298.36 805.449 298.893 806.249 299.24C807.049 299.587 807.915 299.76 808.849 299.76C809.782 299.76 810.649 299.587 811.449 299.24C812.249 298.893 812.942 298.36 813.529 297.64C814.115 296.92 814.569 296.027 814.889 294.96C815.235 293.893 815.409 292.64 815.409 291.2C815.409 289.76 815.235 288.507 814.889 287.44C814.569 286.373 814.115 285.48 813.529 284.76C812.942 284.04 812.249 283.507 811.449 283.16C810.649 282.813 809.782 282.64 808.849 282.64C807.915 282.64 807.049 282.813 806.249 283.16C805.449 283.507 804.755 284.04 804.169 284.76C803.582 285.48 803.115 286.373 802.769 287.44C802.449 288.507 802.289 289.76 802.289 291.2ZM827.134 305V277.4H832.894V305H827.134ZM829.374 277.4H835.334L848.894 305H842.934L829.374 277.4ZM844.934 305V277.4H850.694V305H844.934ZM854.086 305L864.126 277.4H867.486L867.806 283.64L860.726 305H854.086ZM860.846 299.56V294.48H873.886V299.56H860.846ZM866.446 283.64L866.606 277.4H870.286L880.326 305H873.526L866.446 283.64ZM883.736 305V277.4H890.136V305H883.736ZM886.696 305V299.4H902.536V305H886.696Z" fill="url(#paint0_linear_91_2)"/>
<path d="M500.4 555.04L503.44 549.72C504.613 550.68 505.973 551.467 507.52 552.08C509.067 552.667 510.573 552.96 512.04 552.96C512.92 552.96 513.653 552.853 514.24 552.64C514.853 552.427 515.32 552.147 515.64 551.8C515.96 551.453 516.12 551.067 516.12 550.64C516.12 550.267 515.973 549.88 515.68 549.48C515.413 549.08 514.907 548.667 514.16 548.24C513.44 547.813 512.373 547.373 510.96 546.92C508.773 546.2 507 545.387 505.64 544.48C504.307 543.547 503.333 542.533 502.72 541.44C502.107 540.347 501.8 539.2 501.8 538C501.8 536.533 502.187 535.187 502.96 533.96C503.76 532.733 504.933 531.76 506.48 531.04C508.027 530.293 509.933 529.92 512.2 529.92C514.013 529.92 515.813 530.213 517.6 530.8C519.413 531.36 520.933 532.067 522.16 532.92L519.32 538C518.227 537.227 517.027 536.6 515.72 536.12C514.413 535.613 513.067 535.36 511.68 535.36C510.56 535.36 509.707 535.573 509.12 536C508.533 536.427 508.24 536.92 508.24 537.48C508.24 537.88 508.387 538.267 508.68 538.64C509 539.013 509.52 539.387 510.24 539.76C510.987 540.133 511.987 540.533 513.24 540.96C515.507 541.707 517.333 542.547 518.72 543.48C520.107 544.387 521.12 545.4 521.76 546.52C522.4 547.613 522.72 548.84 522.72 550.2C522.72 551.667 522.307 553.027 521.48 554.28C520.653 555.533 519.4 556.547 517.72 557.32C516.04 558.093 513.92 558.48 511.36 558.48C510.107 558.48 508.853 558.333 507.6 558.04C506.347 557.773 505.12 557.387 503.92 556.88C502.72 556.373 501.547 555.76 500.4 555.04ZM527.108 558V553.2H540.708V558H527.108ZM527.108 535.2V530.4H540.708V535.2H527.108ZM530.708 558V530.4H537.108V558H530.708ZM544.697 555.04L547.737 549.72C548.91 550.68 550.27 551.467 551.817 552.08C553.364 552.667 554.87 552.96 556.337 552.96C557.217 552.96 557.95 552.853 558.537 552.64C559.15 552.427 559.617 552.147 559.937 551.8C560.257 551.453 560.417 551.067 560.417 550.64C560.417 550.267 560.27 549.88 559.977 549.48C559.71 549.08 559.204 548.667 558.457 548.24C557.737 547.813 556.67 547.373 555.257 546.92C553.07 546.2 551.297 545.387 549.937 544.48C548.604 543.547 547.63 542.533 547.017 541.44C546.404 540.347 546.097 539.2 546.097 538C546.097 536.533 546.484 535.187 547.257 533.96C548.057 532.733 549.23 531.76 550.777 531.04C552.324 530.293 554.23 529.92 556.497 529.92C558.31 529.92 560.11 530.213 561.897 530.8C563.71 531.36 565.23 532.067 566.457 532.92L563.617 538C562.524 537.227 561.324 536.6 560.017 536.12C558.71 535.613 557.364 535.36 555.977 535.36C554.857 535.36 554.004 535.573 553.417 536C552.83 536.427 552.537 536.92 552.537 537.48C552.537 537.88 552.684 538.267 552.977 538.64C553.297 539.013 553.817 539.387 554.537 539.76C555.284 540.133 556.284 540.533 557.537 540.96C559.804 541.707 561.63 542.547 563.017 543.48C564.404 544.387 565.417 545.4 566.057 546.52C566.697 547.613 567.017 548.84 567.017 550.2C567.017 551.667 566.604 553.027 565.777 554.28C564.95 555.533 563.697 556.547 562.017 557.32C560.337 558.093 558.217 558.48 555.657 558.48C554.404 558.48 553.15 558.333 551.897 558.04C550.644 557.773 549.417 557.387 548.217 556.88C547.017 556.373 545.844 555.76 544.697 555.04ZM569.805 536V530.4H591.245V536H569.805ZM577.325 558V530.4H583.725V558H577.325ZM595.642 558V530.4H602.042V558H595.642ZM598.602 558V552.4H615.242V558H598.602ZM598.602 546.72V541.44H613.162V546.72H598.602ZM598.602 536V530.4H615.042V536H598.602ZM621.033 558V530.4H627.153V558H621.033ZM623.913 530.4H629.793L635.033 544.6V552.36H632.593L623.913 530.4ZM634.393 552.36V544.6L639.633 530.4H645.513L636.833 552.36H634.393ZM642.273 558V530.4H648.393V558H642.273ZM651.773 558L661.813 530.4H665.173L665.493 536.64L658.413 558H651.773ZM658.533 552.56V547.48H671.573V552.56H658.533ZM664.133 536.64L664.293 530.4H667.973L678.013 558H671.213L664.133 536.64ZM691.423 558V530.4H697.823V558H691.423ZM694.383 558V552.4H701.303C702.77 552.4 704.05 552.107 705.143 551.52C706.263 550.907 707.13 549.987 707.743 548.76C708.357 547.533 708.663 546.013 708.663 544.2C708.663 542.36 708.357 540.84 707.743 539.64C707.13 538.413 706.263 537.507 705.143 536.92C704.05 536.307 702.77 536 701.303 536H694.383V530.4H701.903C704.41 530.4 706.663 530.947 708.663 532.04C710.663 533.133 712.25 534.707 713.423 536.76C714.597 538.813 715.183 541.293 715.183 544.2C715.183 547.08 714.597 549.56 713.423 551.64C712.25 553.693 710.663 555.267 708.663 556.36C706.663 557.453 704.41 558 701.903 558H694.383ZM720.369 558V530.4H726.769V558H720.369ZM723.329 558V552.4H739.969V558H723.329ZM723.329 546.72V541.44H737.889V546.72H723.329ZM723.329 536V530.4H739.769V536H723.329ZM755.759 558V530.4H762.159V558H755.759ZM758.719 558V552.4H775.359V558H758.719ZM758.719 546.72V541.44H773.279V546.72H758.719ZM758.719 536V530.4H775.159V536H758.719ZM781.15 558V530.4H786.91V558H781.15ZM783.39 530.4H789.35L802.91 558H796.95L783.39 530.4ZM798.95 558V530.4H804.71V558H798.95ZM809.502 555.04L812.542 549.72C813.715 550.68 815.075 551.467 816.622 552.08C818.168 552.667 819.675 552.96 821.142 552.96C822.022 552.96 822.755 552.853 823.342 552.64C823.955 552.427 824.422 552.147 824.742 551.8C825.062 551.453 825.222 551.067 825.222 550.64C825.222 550.267 825.075 549.88 824.782 549.48C824.515 549.08 824.008 548.667 823.262 548.24C822.542 547.813 821.475 547.373 820.062 546.92C817.875 546.2 816.102 545.387 814.742 544.48C813.408 543.547 812.435 542.533 811.822 541.44C811.208 540.347 810.902 539.2 810.902 538C810.902 536.533 811.288 535.187 812.062 533.96C812.862 532.733 814.035 531.76 815.582 531.04C817.128 530.293 819.035 529.92 821.302 529.92C823.115 529.92 824.915 530.213 826.702 530.8C828.515 531.36 830.035 532.067 831.262 532.92L828.422 538C827.328 537.227 826.128 536.6 824.822 536.12C823.515 535.613 822.168 535.36 820.782 535.36C819.662 535.36 818.808 535.573 818.222 536C817.635 536.427 817.342 536.92 817.342 537.48C817.342 537.88 817.488 538.267 817.782 538.64C818.102 539.013 818.622 539.387 819.342 539.76C820.088 540.133 821.088 540.533 822.342 540.96C824.608 541.707 826.435 542.547 827.822 543.48C829.208 544.387 830.222 545.4 830.862 546.52C831.502 547.613 831.822 548.84 831.822 550.2C831.822 551.667 831.408 553.027 830.582 554.28C829.755 555.533 828.502 556.547 826.822 557.32C825.142 558.093 823.022 558.48 820.462 558.48C819.208 558.48 817.955 558.333 816.702 558.04C815.448 557.773 814.222 557.387 813.022 556.88C811.822 556.373 810.648 555.76 809.502 555.04ZM836.209 558V553.2H849.809V558H836.209ZM836.209 535.2V530.4H849.809V535.2H836.209ZM839.809 558V530.4H846.209V558H839.809ZM855.798 558V530.4H861.558V558H855.798ZM858.038 530.4H863.998L877.558 558H871.598L858.038 530.4ZM873.598 558V530.4H879.358V558H873.598ZM884.55 544.2C884.55 541.96 884.883 539.96 885.55 538.2C886.243 536.44 887.19 534.947 888.39 533.72C889.59 532.493 890.977 531.56 892.55 530.92C894.15 530.253 895.843 529.92 897.63 529.92C899.443 529.92 901.137 530.253 902.71 530.92C904.283 531.56 905.67 532.493 906.87 533.72C908.07 534.947 909.003 536.44 909.67 538.2C910.363 539.96 910.71 541.96 910.71 544.2C910.71 546.44 910.363 548.44 909.67 550.2C909.003 551.96 908.07 553.453 906.87 554.68C905.67 555.907 904.283 556.853 902.71 557.52C901.137 558.16 899.457 558.48 897.67 558.48C895.857 558.48 894.15 558.16 892.55 557.52C890.977 556.853 889.59 555.907 888.39 554.68C887.19 553.453 886.243 551.96 885.55 550.2C884.883 548.44 884.55 546.44 884.55 544.2ZM891.07 544.2C891.07 545.64 891.23 546.893 891.55 547.96C891.897 549.027 892.363 549.92 892.95 550.64C893.537 551.36 894.23 551.893 895.03 552.24C895.83 552.587 896.697 552.76 897.63 552.76C898.563 552.76 899.43 552.587 900.23 552.24C901.03 551.893 901.723 551.36 902.31 550.64C902.897 549.92 903.35 549.027 903.67 547.96C904.017 546.893 904.19 545.64 904.19 544.2C904.19 542.76 904.017 541.507 903.67 540.44C903.35 539.373 902.897 538.48 902.31 537.76C901.723 537.04 901.03 536.507 900.23 536.16C899.43 535.813 898.563 535.64 897.63 535.64C896.697 535.64 895.83 535.813 895.03 536.16C894.23 536.507 893.537 537.04 892.95 537.76C892.363 538.48 891.897 539.373 891.55 540.44C891.23 541.507 891.07 542.76 891.07 544.2ZM925.916 558V530.4H932.316V558H925.916ZM928.876 558V552.4H945.516V558H928.876ZM928.876 546.72V541.44H943.436V546.72H928.876ZM928.876 536V530.4H945.316V536H928.876ZM948.116 555.04L951.956 550.56C952.409 551.2 953.009 551.733 953.756 552.16C954.502 552.56 955.329 552.76 956.236 552.76C957.702 552.76 958.836 552.307 959.636 551.4C960.462 550.493 960.876 549.16 960.876 547.4V530.4H967.276V548.2C967.276 550.387 966.782 552.253 965.796 553.8C964.836 555.32 963.529 556.48 961.876 557.28C960.249 558.08 958.436 558.48 956.436 558.48C954.729 558.48 953.182 558.173 951.796 557.56C950.409 556.947 949.182 556.107 948.116 555.04ZM954.316 535.2V530.4H965.116V535.2H954.316ZM969.898 558L979.938 530.4H983.298L983.618 536.64L976.538 558H969.898ZM976.658 552.56V547.48H989.698V552.56H976.658ZM982.258 536.64L982.418 530.4H986.098L996.138 558H989.338L982.258 536.64ZM500.8 592.2C500.8 589.96 501.16 587.96 501.88 586.2C502.627 584.44 503.627 582.947 504.88 581.72C506.16 580.493 507.613 579.56 509.24 578.92C510.893 578.253 512.64 577.92 514.48 577.92C516.213 577.92 517.8 578.16 519.24 578.64C520.707 579.093 522.133 579.787 523.52 580.72L520.04 585.84C519.213 585.28 518.32 584.827 517.36 584.48C516.4 584.107 515.373 583.92 514.28 583.92C513 583.92 511.827 584.227 510.76 584.84C509.72 585.453 508.88 586.373 508.24 587.6C507.627 588.827 507.32 590.36 507.32 592.2C507.32 594.04 507.627 595.573 508.24 596.8C508.88 598.027 509.733 598.947 510.8 599.56C511.867 600.173 513.04 600.48 514.32 600.48C515.413 600.48 516.427 600.28 517.36 599.88C518.32 599.48 519.213 598.947 520.04 598.28L523.72 603.24C522.36 604.307 520.947 605.12 519.48 605.68C518.013 606.213 516.373 606.48 514.56 606.48C512.72 606.48 510.96 606.16 509.28 605.52C507.627 604.853 506.16 603.907 504.88 602.68C503.627 601.453 502.627 599.96 501.88 598.2C501.16 596.44 500.8 594.44 500.8 592.2ZM526.152 592.2C526.152 589.96 526.485 587.96 527.152 586.2C527.845 584.44 528.792 582.947 529.992 581.72C531.192 580.493 532.578 579.56 534.152 578.92C535.752 578.253 537.445 577.92 539.232 577.92C541.045 577.92 542.738 578.253 544.312 578.92C545.885 579.56 547.272 580.493 548.472 581.72C549.672 582.947 550.605 584.44 551.272 586.2C551.965 587.96 552.312 589.96 552.312 592.2C552.312 594.44 551.965 596.44 551.272 598.2C550.605 599.96 549.672 601.453 548.472 602.68C547.272 603.907 545.885 604.853 544.312 605.52C542.738 606.16 541.058 606.48 539.272 606.48C537.458 606.48 535.752 606.16 534.152 605.52C532.578 604.853 531.192 603.907 529.992 602.68C528.792 601.453 527.845 599.96 527.152 598.2C526.485 596.44 526.152 594.44 526.152 592.2ZM532.672 592.2C532.672 593.64 532.832 594.893 533.152 595.96C533.498 597.027 533.965 597.92 534.552 598.64C535.138 599.36 535.832 599.893 536.632 600.24C537.432 600.587 538.298 600.76 539.232 600.76C540.165 600.76 541.032 600.587 541.832 600.24C542.632 599.893 543.325 599.36 543.912 598.64C544.498 597.92 544.952 597.027 545.272 595.96C545.618 594.893 545.792 593.64 545.792 592.2C545.792 590.76 545.618 589.507 545.272 588.44C544.952 587.373 544.498 586.48 543.912 585.76C543.325 585.04 542.632 584.507 541.832 584.16C541.032 583.813 540.165 583.64 539.232 583.64C538.298 583.64 537.432 583.813 536.632 584.16C535.832 584.507 535.138 585.04 534.552 585.76C533.965 586.48 533.498 587.373 533.152 588.44C532.832 589.507 532.672 590.76 532.672 592.2ZM557.517 606V578.4H563.277V606H557.517ZM559.757 578.4H565.717L579.277 606H573.317L559.757 578.4ZM575.317 606V578.4H581.077V606H575.317ZM586.269 592.2C586.269 589.96 586.629 587.96 587.349 586.2C588.095 584.44 589.095 582.947 590.349 581.72C591.629 580.493 593.082 579.56 594.709 578.92C596.362 578.253 598.109 577.92 599.949 577.92C601.682 577.92 603.269 578.16 604.709 578.64C606.175 579.093 607.602 579.787 608.989 580.72L605.509 585.84C604.682 585.28 603.789 584.827 602.829 584.48C601.869 584.107 600.842 583.92 599.749 583.92C598.469 583.92 597.295 584.227 596.229 584.84C595.189 585.453 594.349 586.373 593.709 587.6C593.095 588.827 592.789 590.36 592.789 592.2C592.789 594.04 593.095 595.573 593.709 596.8C594.349 598.027 595.202 598.947 596.269 599.56C597.335 600.173 598.509 600.48 599.789 600.48C600.882 600.48 601.895 600.28 602.829 599.88C603.789 599.48 604.682 598.947 605.509 598.28L609.189 603.24C607.829 604.307 606.415 605.12 604.949 605.68C603.482 606.213 601.842 606.48 600.029 606.48C598.189 606.48 596.429 606.16 594.749 605.52C593.095 604.853 591.629 603.907 590.349 602.68C589.095 601.453 588.095 599.96 587.349 598.2C586.629 596.44 586.269 594.44 586.269 592.2ZM614.002 606V578.4H620.402V606H614.002ZM616.962 606V600.4H632.802V606H616.962ZM635.984 595V578.4H642.384V594.2C642.384 595.72 642.611 596.96 643.064 597.92C643.518 598.88 644.131 599.6 644.904 600.08C645.678 600.533 646.558 600.76 647.544 600.76C648.531 600.76 649.411 600.533 650.184 600.08C650.958 599.6 651.571 598.88 652.024 597.92C652.478 596.96 652.704 595.72 652.704 594.2V578.4H658.944V595C658.944 597.453 658.438 599.533 657.424 601.24C656.411 602.947 655.038 604.253 653.304 605.16C651.571 606.04 649.624 606.48 647.464 606.48C645.331 606.48 643.384 606.04 641.624 605.16C639.891 604.253 638.518 602.947 637.504 601.24C636.491 599.533 635.984 597.453 635.984 595ZM661.539 606L671.579 578.4H674.939L675.259 584.64L668.179 606H661.539ZM668.299 600.56V595.48H681.339V600.56H668.299ZM673.899 584.64L674.059 578.4H677.739L687.779 606H680.979L673.899 584.64ZM699.189 603.04L702.229 597.72C703.402 598.68 704.762 599.467 706.309 600.08C707.856 600.667 709.362 600.96 710.829 600.96C711.709 600.96 712.442 600.853 713.029 600.64C713.642 600.427 714.109 600.147 714.429 599.8C714.749 599.453 714.909 599.067 714.909 598.64C714.909 598.267 714.762 597.88 714.469 597.48C714.202 597.08 713.696 596.667 712.949 596.24C712.229 595.813 711.162 595.373 709.749 594.92C707.562 594.2 705.789 593.387 704.429 592.48C703.096 591.547 702.122 590.533 701.509 589.44C700.896 588.347 700.589 587.2 700.589 586C700.589 584.533 700.976 583.187 701.749 581.96C702.549 580.733 703.722 579.76 705.269 579.04C706.816 578.293 708.722 577.92 710.989 577.92C712.802 577.92 714.602 578.213 716.389 578.8C718.202 579.36 719.722 580.067 720.949 580.92L718.109 586C717.016 585.227 715.816 584.6 714.509 584.12C713.202 583.613 711.856 583.36 710.469 583.36C709.349 583.36 708.496 583.573 707.909 584C707.322 584.427 707.029 584.92 707.029 585.48C707.029 585.88 707.176 586.267 707.469 586.64C707.789 587.013 708.309 587.387 709.029 587.76C709.776 588.133 710.776 588.533 712.029 588.96C714.296 589.707 716.122 590.547 717.509 591.48C718.896 592.387 719.909 593.4 720.549 594.52C721.189 595.613 721.509 596.84 721.509 598.2C721.509 599.667 721.096 601.027 720.269 602.28C719.442 603.533 718.189 604.547 716.509 605.32C714.829 606.093 712.709 606.48 710.149 606.48C708.896 606.48 707.642 606.333 706.389 606.04C705.136 605.773 703.909 605.387 702.709 604.88C701.509 604.373 700.336 603.76 699.189 603.04ZM726.697 606V578.4H733.097V606H726.697ZM729.657 606V600.4H746.297V606H729.657ZM729.657 594.72V589.44H744.217V594.72H729.657ZM729.657 584V578.4H746.097V584H729.657ZM751.688 595V578.4H758.088V594.2C758.088 595.72 758.314 596.96 758.768 597.92C759.221 598.88 759.834 599.6 760.608 600.08C761.381 600.533 762.261 600.76 763.248 600.76C764.234 600.76 765.114 600.533 765.888 600.08C766.661 599.6 767.274 598.88 767.728 597.92C768.181 596.96 768.408 595.72 768.408 594.2V578.4H774.648V595C774.648 597.453 774.141 599.533 773.128 601.24C772.114 602.947 770.741 604.253 769.008 605.16C767.274 606.04 765.328 606.48 763.168 606.48C761.034 606.48 759.088 606.04 757.328 605.16C755.594 604.253 754.221 602.947 753.208 601.24C752.194 599.533 751.688 597.453 751.688 595ZM779.033 603.04L782.073 597.72C783.246 598.68 784.606 599.467 786.153 600.08C787.699 600.667 789.206 600.96 790.673 600.96C791.553 600.96 792.286 600.853 792.873 600.64C793.486 600.427 793.953 600.147 794.273 599.8C794.593 599.453 794.753 599.067 794.753 598.64C794.753 598.267 794.606 597.88 794.313 597.48C794.046 597.08 793.539 596.667 792.793 596.24C792.073 595.813 791.006 595.373 789.593 594.92C787.406 594.2 785.633 593.387 784.273 592.48C782.939 591.547 781.966 590.533 781.353 589.44C780.739 588.347 780.433 587.2 780.433 586C780.433 584.533 780.819 583.187 781.593 581.96C782.393 580.733 783.566 579.76 785.113 579.04C786.659 578.293 788.566 577.92 790.833 577.92C792.646 577.92 794.446 578.213 796.233 578.8C798.046 579.36 799.566 580.067 800.793 580.92L797.953 586C796.859 585.227 795.659 584.6 794.353 584.12C793.046 583.613 791.699 583.36 790.313 583.36C789.193 583.36 788.339 583.573 787.753 584C787.166 584.427 786.873 584.92 786.873 585.48C786.873 585.88 787.019 586.267 787.313 586.64C787.633 587.013 788.153 587.387 788.873 587.76C789.619 588.133 790.619 588.533 791.873 588.96C794.139 589.707 795.966 590.547 797.353 591.48C798.739 592.387 799.753 593.4 800.393 594.52C801.033 595.613 801.353 596.84 801.353 598.2C801.353 599.667 800.939 601.027 800.113 602.28C799.286 603.533 798.033 604.547 796.353 605.32C794.673 606.093 792.553 606.48 789.993 606.48C788.739 606.48 787.486 606.333 786.233 606.04C784.979 605.773 783.753 605.387 782.553 604.88C781.353 604.373 780.179 603.76 779.033 603.04ZM816.541 606V578.4H822.941V606H816.541ZM819.501 606V600.4H836.141V606H819.501ZM819.501 594.72V589.44H834.061V594.72H819.501ZM819.501 584V578.4H835.941V584H819.501ZM839.931 603.04L842.971 597.72C844.145 598.68 845.505 599.467 847.051 600.08C848.598 600.667 850.105 600.96 851.571 600.96C852.451 600.96 853.185 600.853 853.771 600.64C854.385 600.427 854.851 600.147 855.171 599.8C855.491 599.453 855.651 599.067 855.651 598.64C855.651 598.267 855.505 597.88 855.211 597.48C854.945 597.08 854.438 596.667 853.691 596.24C852.971 595.813 851.905 595.373 850.491 594.92C848.305 594.2 846.531 593.387 845.171 592.48C843.838 591.547 842.865 590.533 842.251 589.44C841.638 588.347 841.331 587.2 841.331 586C841.331 584.533 841.718 583.187 842.491 581.96C843.291 580.733 844.465 579.76 846.011 579.04C847.558 578.293 849.465 577.92 851.731 577.92C853.545 577.92 855.345 578.213 857.131 578.8C858.945 579.36 860.465 580.067 861.691 580.92L858.851 586C857.758 585.227 856.558 584.6 855.251 584.12C853.945 583.613 852.598 583.36 851.211 583.36C850.091 583.36 849.238 583.573 848.651 584C848.065 584.427 847.771 584.92 847.771 585.48C847.771 585.88 847.918 586.267 848.211 586.64C848.531 587.013 849.051 587.387 849.771 587.76C850.518 588.133 851.518 588.533 852.771 588.96C855.038 589.707 856.865 590.547 858.251 591.48C859.638 592.387 860.651 593.4 861.291 594.52C861.931 595.613 862.251 596.84 862.251 598.2C862.251 599.667 861.838 601.027 861.011 602.28C860.185 603.533 858.931 604.547 857.251 605.32C855.571 606.093 853.451 606.48 850.891 606.48C849.638 606.48 848.385 606.333 847.131 606.04C845.878 605.773 844.651 605.387 843.451 604.88C842.251 604.373 841.078 603.76 839.931 603.04ZM865.039 584V578.4H886.479V584H865.039ZM872.559 606V578.4H878.959V606H872.559ZM890.477 595V578.4H896.877V594.2C896.877 595.72 897.103 596.96 897.557 597.92C898.01 598.88 898.623 599.6 899.397 600.08C900.17 600.533 901.05 600.76 902.037 600.76C903.023 600.76 903.903 600.533 904.677 600.08C905.45 599.6 906.063 598.88 906.517 597.92C906.97 596.96 907.197 595.72 907.197 594.2V578.4H913.437V595C913.437 597.453 912.93 599.533 911.917 601.24C910.903 602.947 909.53 604.253 907.797 605.16C906.063 606.04 904.117 606.48 901.957 606.48C899.823 606.48 897.877 606.04 896.117 605.16C894.383 604.253 893.01 602.947 891.997 601.24C890.983 599.533 890.477 597.453 890.477 595ZM919.822 606V578.4H926.222V606H919.822ZM922.782 606V600.4H929.702C931.169 600.4 932.449 600.107 933.542 599.52C934.662 598.907 935.529 597.987 936.142 596.76C936.755 595.533 937.062 594.013 937.062 592.2C937.062 590.36 936.755 588.84 936.142 587.64C935.529 586.413 934.662 585.507 933.542 584.92C932.449 584.307 931.169 584 929.702 584H922.782V578.4H930.302C932.809 578.4 935.062 578.947 937.062 580.04C939.062 581.133 940.649 582.707 941.822 584.76C942.995 586.813 943.582 589.293 943.582 592.2C943.582 595.08 942.995 597.56 941.822 599.64C940.649 601.693 939.062 603.267 937.062 604.36C935.062 605.453 932.809 606 930.302 606H922.782ZM947.167 592.2C947.167 589.96 947.501 587.96 948.167 586.2C948.861 584.44 949.807 582.947 951.007 581.72C952.207 580.493 953.594 579.56 955.167 578.92C956.767 578.253 958.461 577.92 960.247 577.92C962.061 577.92 963.754 578.253 965.327 578.92C966.901 579.56 968.287 580.493 969.487 581.72C970.687 582.947 971.621 584.44 972.287 586.2C972.981 587.96 973.327 589.96 973.327 592.2C973.327 594.44 972.981 596.44 972.287 598.2C971.621 599.96 970.687 601.453 969.487 602.68C968.287 603.907 966.901 604.853 965.327 605.52C963.754 606.16 962.074 606.48 960.287 606.48C958.474 606.48 956.767 606.16 955.167 605.52C953.594 604.853 952.207 603.907 951.007 602.68C949.807 601.453 948.861 599.96 948.167 598.2C947.501 596.44 947.167 594.44 947.167 592.2ZM953.687 592.2C953.687 593.64 953.847 594.893 954.167 595.96C954.514 597.027 954.981 597.92 955.567 598.64C956.154 599.36 956.847 599.893 957.647 600.24C958.447 600.587 959.314 600.76 960.247 600.76C961.181 600.76 962.047 600.587 962.847 600.24C963.647 599.893 964.341 599.36 964.927 598.64C965.514 597.92 965.967 597.027 966.287 595.96C966.634 594.893 966.807 593.64 966.807 592.2C966.807 590.76 966.634 589.507 966.287 588.44C965.967 587.373 965.514 586.48 964.927 585.76C964.341 585.04 963.647 584.507 962.847 584.16C962.047 583.813 961.181 583.64 960.247 583.64C959.314 583.64 958.447 583.813 957.647 584.16C956.847 584.507 956.154 585.04 955.567 585.76C954.981 586.48 954.514 587.373 954.167 588.44C953.847 589.507 953.687 590.76 953.687 592.2ZM976.533 603.04L979.573 597.72C980.746 598.68 982.106 599.467 983.653 600.08C985.199 600.667 986.706 600.96 988.173 600.96C989.053 600.96 989.786 600.853 990.373 600.64C990.986 600.427 991.453 600.147 991.773 599.8C992.093 599.453 992.253 599.067 992.253 598.64C992.253 598.267 992.106 597.88 991.813 597.48C991.546 597.08 991.039 596.667 990.293 596.24C989.573 595.813 988.506 595.373 987.093 594.92C984.906 594.2 983.133 593.387 981.773 592.48C980.439 591.547 979.466 590.533 978.853 589.44C978.239 588.347 977.933 587.2 977.933 586C977.933 584.533 978.319 583.187 979.093 581.96C979.893 580.733 981.066 579.76 982.613 579.04C984.159 578.293 986.066 577.92 988.333 577.92C990.146 577.92 991.946 578.213 993.733 578.8C995.546 579.36 997.066 580.067 998.293 580.92L995.453 586C994.359 585.227 993.159 584.6 991.853 584.12C990.546 583.613 989.199 583.36 987.813 583.36C986.693 583.36 985.839 583.573 985.253 584C984.666 584.427 984.373 584.92 984.373 585.48C984.373 585.88 984.519 586.267 984.813 586.64C985.133 587.013 985.653 587.387 986.373 587.76C987.119 588.133 988.119 588.533 989.373 588.96C991.639 589.707 993.466 590.547 994.853 591.48C996.239 592.387 997.253 593.4 997.893 594.52C998.533 595.613 998.853 596.84 998.853 598.2C998.853 599.667 998.439 601.027 997.613 602.28C996.786 603.533 995.533 604.547 993.853 605.32C992.173 606.093 990.053 606.48 987.493 606.48C986.239 606.48 984.986 606.333 983.733 606.04C982.479 605.773 981.253 605.387 980.053 604.88C978.853 604.373 977.679 603.76 976.533 603.04Z" fill="url(#paint1_linear_91_2)"/>
<defs>
<linearGradient id="paint0_linear_91_2" x1="386" y1="230" x2="632" y2="349" gradientUnits="userSpaceOnUse">
<stop stop-color="#03AAE1"/>
<stop offset="1" stop-color="#56C2BD"/>
</linearGradient>
<linearGradient id="paint1_linear_91_2" x1="601" y1="520" x2="809" y2="652" gradientUnits="userSpaceOnUse">
<stop stop-color="#38DF58"/>
<stop offset="1" stop-color="#C7CF21"/>
</linearGradient>
</defs>
</svg>
